<?xml version="1.0" encoding="utf-8"?>
<!-- Generator: Adobe Illustrator 24.0.0, SVG Export Plug-In . SVG Version: 6.00 Build 0)  -->
<svg version="1.1" id="Layer_1" xmlns="http://www.w3.org/2000/svg" xmlns:xlink="http://www.w3.org/1999/xlink" x="0px" y="0px"
	 viewBox="0 0 158.4 158.4" style="enable-background:new 0 0 158.4 158.4;" xml:space="preserve">
<style type="text/css">
	.st0{fill:#FFFFFF;}
	.st1{fill:#414042;}
</style>
<g>
	<g>
		<path class="st1" d="M158.4,79.2c0,8.1-1.2,15.8-3.5,23.2c-0.3,0.9-0.5,1.7-0.8,2.6c-5.2,15.1-14.8,28.1-27.4,37.5
			c-0.7,0.5-1.4,1.1-2.1,1.6c-12.5,8.7-27.5,14-43.9,14.3c-0.5,0-1,0-1.5,0c-0.5,0-1,0-1.4,0c-16.3-0.3-31.5-5.5-44-14.3
			c-0.7-0.5-1.5-1-2.2-1.6C19.1,133.1,9.5,120,4.3,104.9c-0.3-0.8-0.6-1.7-0.8-2.5C1.2,95.1,0,87.3,0,79.2c0-8.1,1.2-16,3.5-23.4
			C3.8,55,4,54.1,4.3,53.3c5.2-15.1,14.9-28.1,27.4-37.5c0.7-0.5,1.4-1.1,2.1-1.5C46.3,5.5,61.4,0.3,77.8,0c0.5,0,1,0,1.4,0
			c0.5,0,1.1,0,1.6,0c16.3,0.3,31.3,5.5,43.7,14.2c0.7,0.5,1.5,1,2.2,1.6c12.5,9.4,22.1,22.4,27.4,37.5c0.3,0.9,0.6,1.7,0.8,2.6
			C157.2,63.2,158.4,71.1,158.4,79.2z"/>
		<g>
			<path class="st0" d="M36,123.1c-0.2,0-0.4-0.1-0.5-0.2c-0.3-0.3-0.3-0.8,0-1.1l29.7-29.7c0.3-0.3,0.8-0.3,1.1,0s0.3,0.8,0,1.1
				l-29.7,29.7C36.4,123,36.2,123.1,36,123.1z"/>
			<path class="st0" d="M92.7,66.5c-0.2,0-0.4-0.1-0.5-0.2c-0.3-0.3-0.3-0.8,0-1.1l29.7-29.7c0.3-0.3,0.8-0.3,1.1,0
				c0.3,0.3,0.3,0.8,0,1.1L93.2,66.2C93,66.4,92.8,66.5,92.7,66.5z"/>
			<path class="st0" d="M122.3,123.1c-0.2,0-0.4-0.1-0.5-0.2L92.1,93.2c-0.3-0.3-0.3-0.8,0-1.1s0.8-0.3,1.1,0l29.7,29.7
				c0.3,0.3,0.3,0.8,0,1.1C122.7,123,122.5,123.1,122.3,123.1z"/>
			<path class="st0" d="M65.7,66.4c-0.2,0-0.4-0.1-0.5-0.2L35.5,36.6c-0.3-0.3-0.3-0.8,0-1.1c0.3-0.3,0.8-0.3,1.1,0l29.7,29.7
				c0.3,0.3,0.3,0.8,0,1.1C66.1,66.4,65.9,66.4,65.7,66.4z"/>
		</g>
		<g>
			<g>
				<g>
					<path class="st0" d="M97.6,47.3l-4.2-7.9c-0.1-0.3-0.5-0.4-0.7-0.2c-0.3,0.1-0.4,0.5-0.2,0.7l4.1,7.7H82.3
						c0-0.1-6.2-11.8-6.2-11.8l0.9-1.7l1,1.3c0.2,0.2,0.4,0.3,0.7,0.4c0.3,0,0.5-0.1,0.7-0.3l2.3-2.6l4.5,5.3
						c0.2,0.2,0.4,0.3,0.7,0.3c0,0,0,0,0,0c0.3,0,0.5-0.1,0.7-0.3c0,0,0,0,0,0l2.5-2.9l1,1.9c0.1,0.3,0.5,0.4,0.7,0.2
						c0.3-0.1,0.4-0.5,0.2-0.7L84,21.7c-0.2-0.3-0.5-0.5-0.8-0.5h0c-0.3,0-0.6,0.2-0.8,0.5l-5.6,10.4l-0.4,0.7c0,0,0,0,0,0l-1,1.8
						l-2.9-5.5c-0.1-0.2-0.3-0.4-0.5-0.4c-0.1,0-0.2,0-0.2,0c0,0,0,0,0,0c0,0,0,0,0,0c0,0,0,0,0,0c0,0,0,0,0,0c0,0,0,0,0,0
						c0,0,0,0,0,0c0,0,0,0,0,0c-0.3,0.1-0.5,0.2-0.6,0.5l-2,3.6L65.8,39c0,0,0,0,0,0l-4.5,8.4c-0.1,0.3-0.1,0.6,0,0.9
						c0.2,0.3,0.4,0.4,0.8,0.4h34.7c0.3,0,0.6-0.2,0.8-0.4C97.7,48,97.7,47.6,97.6,47.3z M77.8,32.8l5.5-10.3l6.2,11.7l-2.6,3
						L82.4,32c-0.2-0.2-0.4-0.3-0.7-0.3c0,0,0,0,0,0c-0.3,0-0.5,0.1-0.7,0.3l-2.3,2.6l-1.1-1.5L77.8,32.8z M62.4,47.6l4-7.5l1.6,1.3
						c0.2,0.1,0.4,0.2,0.6,0.2c0.2,0,0.5-0.1,0.7-0.3l1.8-2l1.1,1.1c0.2,0.2,0.5,0.2,0.8,0c0.2-0.2,0.2-0.5,0-0.8l-1.3-1.3
						c-0.2-0.2-0.4-0.3-0.7-0.3c-0.2,0-0.5,0.1-0.6,0.3l-1.8,2L67,39.1l4.9-9.1l6.3,11.9l-1.5,1.4l-1.4-1.4c-0.2-0.2-0.5-0.2-0.8,0
						c-0.2,0.2-0.2,0.5,0,0.8l1.5,1.5c0.2,0.2,0.4,0.3,0.6,0.3c0.2,0,0.4-0.1,0.6-0.2l1.4-1.3l2.5,4.7H62.4z"/>
				</g>
			</g>
			<g>
				<g>
					<path class="st0" d="M88.5,119.9c-0.1,0-0.2,0-0.3,0c-1.1-2.3-3-4.1-5.5-5v-2.3c0-1.8-1.5-3.3-3.3-3.3s-3.3,1.5-3.3,3.3v2.3
						c-2.4,0.9-4.4,2.7-5.5,5c-0.1,0-0.2,0-0.3,0c-2.6,0-4.7,2.1-4.7,4.7c0,0.3,0.2,0.5,0.5,0.5h3.6c0.3,2.1,1.2,4,2.6,5.5
						c-0.5,0.8-0.7,1.8-0.6,2.8c0.1,1.1,0.6,2.2,1.4,3c0.1,0.1,0.2,0.2,0.4,0.2s0.3-0.1,0.4-0.2l3-3c0.8,0.2,1.7,0.3,2.6,0.3
						c0.9,0,1.8-0.1,2.7-0.4l3,3c0.1,0.1,0.2,0.2,0.4,0.2c0.1,0,0.3-0.1,0.4-0.2c0.8-0.8,1.3-1.8,1.4-3c0.1-1-0.2-2-0.7-2.8
						c1.3-1.5,2.2-3.3,2.5-5.4h3.6c0.3,0,0.5-0.2,0.5-0.5C93.2,122.1,91.1,119.9,88.5,119.9z M69.8,124.1
						C69.8,124.1,69.8,124.1,69.8,124.1l-2.9,0.1c0.3-1.7,1.7-3,3.4-3.1C69.9,122,69.8,123,69.8,124.1z M77.2,112.6
						c0-1.2,1-2.2,2.2-2.2c1.2,0,2.2,1,2.2,2.2v2c-0.7-0.2-1.5-0.3-2.2-0.3c-0.8,0-1.5,0.1-2.2,0.3V112.6z M72.2,128.6
						c-0.8-1.3-1.3-2.9-1.3-4.6c0-1.7,0.5-3.3,1.4-4.7l2.4,2.4c0.1,0.1,0.2,0.2,0.4,0.2c0.1,0,0.3-0.1,0.4-0.2
						c0.2-0.2,0.2-0.6,0-0.8l-2.6-2.5c1.6-1.9,3.9-3,6.6-3c2.6,0,5,1.2,6.6,3l-2.3,2.3l-3.7-2.1v-3.5c0-0.3-0.2-0.5-0.5-0.5
						c-0.3,0-0.5,0.2-0.5,0.5v3.5l-4.1,2.4c-0.2,0.1-0.3,0.3-0.3,0.5v4.8L72.2,128.6z M73.5,135.2c-0.8-1.1-0.9-2.5-0.3-3.7
						c0.8,0.6,1.6,1.2,2.5,1.5L73.5,135.2z M79,132.6c-2.5-0.1-4.7-1.3-6.1-3.1l2.3-2.3l3.9,2.2V132.6z M75.6,126.3v-4.4l3.8-2.2
						l3.8,2.2v4.4l-3.8,2.2L75.6,126.3z M80.1,132.6v-3.2l3.7-2.1l2.3,2.3C84.6,131.3,82.5,132.5,80.1,132.6z M85.5,135.2l-2.2-2.2
						c0.9-0.4,1.8-0.9,2.5-1.6C86.4,132.6,86.3,134.1,85.5,135.2z M86.7,128.7l-2.3-2.3v-4.7l2.3-2.3c0.9,1.3,1.4,2.9,1.4,4.7
						C88.1,125.7,87.6,127.3,86.7,128.7z M89.2,124.1C89.2,124.1,89.2,124.1,89.2,124.1c0-1.1-0.2-2.1-0.5-3.1
						c1.7,0.1,3.1,1.4,3.4,3.1H89.2z"/>
				</g>
			</g>
		</g>
		<g>
			<g id="_x30_96---Kayaking_1_">
				<path id="Shape_2_" class="st0" d="M129.5,70.4c1.6-0.6,3.2-1.1,4.9-1.4c-0.3,1.7-0.8,3.4-1.5,5c-0.1,0.2,0,0.5,0.2,0.6
					s0.5,0,0.6-0.2c0.8-1.9,1.3-3.8,1.7-5.8c0-0.1,0-0.3-0.1-0.4c-0.1-0.1-0.2-0.1-0.4-0.1c-2,0.3-3.9,0.9-5.7,1.6
					c-0.1,0.1-0.2,0.2-0.3,0.3c0,0.2,0,0.3,0.2,0.4S129.3,70.5,129.5,70.4L129.5,70.4z"/>
				<path id="Shape_1_" class="st0" d="M137.2,87.8l-2.4-2.4c-0.9-0.9-2.4-1-3.5-0.2l-1-1c4.9-5.2,6.6-12.1,7.2-15.9
					c0.2-0.7,0-1.4-0.5-1.9c-0.5-0.5-1.2-0.7-1.9-0.6c-3.7,0.5-10.7,2.2-15.9,7.2l-1-1c0.8-1,0.7-2.5-0.2-3.5l-2.4-2.4
					c-0.5-0.5-1.3-0.5-1.9,0l-2,2c-0.5,0.5-0.5,1.3,0,1.8l2.4,2.4c0.9,0.9,2.4,1,3.5,0.2l1,1c-4.9,5.1-6.6,12.1-7.2,15.8
					c-0.1,0.7,0.1,1.4,0.5,1.9c0.5,0.5,1.2,0.7,1.9,0.6c3.7-0.5,10.7-2.2,15.9-7.2l1,1c-0.8,1-0.7,2.5,0.2,3.5l2.4,2.4
					c0.5,0.5,1.3,0.5,1.9,0l2-2C137.7,89.1,137.7,88.3,137.2,87.8z M117.6,71.4l-1.6-1.6c-0.1-0.1-0.3-0.2-0.4-0.1
					c-0.2,0-0.3,0.2-0.3,0.3c0,0.2,0,0.3,0.1,0.4L117,72c-0.7,0.5-1.6,0.4-2.2-0.2l-2.4-2.4c-0.2-0.2-0.2-0.5,0-0.6l2-2
					c0.2-0.2,0.5-0.2,0.6,0l2.4,2.4C118,69.8,118.1,70.7,117.6,71.4z M119.2,74.3l1.4,1.4c-1.8,2-3.4,5.2-2.4,7.7
					c0.1,0.2,0.2,0.5,0.4,0.7l-1.4,1.4l-3-3.1C115.3,79.4,117,76.7,119.2,74.3z M127.1,82.1c-0.2,0.2-0.5,0.4-0.7,0.6l-0.7,0.5
					c-0.7,0.5-1.4,0.8-2.2,1.1l-4.4-4.4c0.3-0.8,0.6-1.5,1.1-2.2l0.5-0.7c0.2-0.2,0.4-0.5,0.6-0.7L127.1,82.1z M121.9,75.7
					c1.4-1.3,3.5-2.5,5.4-2.5c0.8,0,1.6,0.3,2.1,0.8c1.5,1.6,0.7,4.9-1.7,7.5L121.9,75.7z M122.5,84.6c-2.6,0.4-4.1-1.2-3.7-3.7
					L122.5,84.6z M113.6,91.1c-0.4,0.1-0.8,0-1.1-0.3s-0.4-0.7-0.3-1.1c0.2-1.3,0.5-2.6,0.8-3.8l4.4,4.5
					C116.2,90.7,114.9,90.9,113.6,91.1z M118.4,90.1l-5.1-5.2c0.1-0.5,0.3-1,0.5-1.5c0,0,0.1,0.1,0.1,0.1c0,0.1,0.3,0.3,0.3,0.3l0,0
					c0,0,0,0,0,0c0.7,0.7,2.3,2.4,5.6,5.8C119.4,89.8,118.9,89.9,118.4,90.1z M120.8,89.2l-3-3.1l1.4-1.4c0.7,0.5,1.6,0.8,2.5,0.8
					c1.9,0,4.1-1,6-2.8l1.4,1.4C126.7,86.4,123.9,88.1,120.8,89.2z M129.7,83.5l-1.4-1.4c2.8-3,3.6-6.8,1.7-8.7
					c-0.7-0.7-1.8-1.1-2.8-1.1c-1.9,0-4.1,1-6,2.8l-1.4-1.4c5-4.8,11.8-6.5,15.4-7c0.4-0.1,0.8,0,1.1,0.3c0.3,0.3,0.4,0.7,0.3,1.1
					C136.1,71.8,134.4,78.5,129.7,83.5z M136.6,89l-2,2c-0.2,0.2-0.4,0.2-0.6,0l-2.4-2.4c-0.6-0.6-0.7-1.5-0.2-2.2l2,1.9
					c0.1,0.1,0.3,0.2,0.4,0.1c0.2,0,0.3-0.2,0.3-0.3c0-0.1,0-0.3-0.1-0.4l-2-2c0.7-0.5,1.6-0.4,2.2,0.2l2.4,2.4
					C136.7,88.5,136.7,88.8,136.6,89z"/>
			</g>
			<g>
				<g>
					<path class="st0" d="M45.1,92.1h-1.6v-1c0-0.4-0.3-0.8-0.8-0.8h-2.3v-2h0.5c0.4,0,0.8-0.4,0.8-0.8v-1.1c1.5,0,2.8-0.8,3.5-2.2
						l0.4-0.8c0.2-0.3,0.1-0.6-0.1-0.9c-0.2-0.2-0.5-0.3-0.8-0.2c-0.5,0.2-0.9,0.3-1.4,0.4c0,0,0,0,0,0l-2-0.8
						c-1.1-0.5-2.1-1.2-2.8-2.3c-0.1-0.2-0.3-0.3-0.6-0.4v-2.7h1.9c1.5,0,2.9-0.8,3.6-2.2l0.4-0.8c0.2-0.3,0.1-0.6-0.1-0.9
						c-0.2-0.2-0.5-0.3-0.8-0.2c-0.6,0.2-1.1,0.3-1.7,0.4l-1.7-0.8c-1.5-0.8-2.9-1.9-4-3.2c0.2-0.2,0.3-0.5,0.3-0.8
						c0-0.3-0.1-0.6-0.3-0.9c0.2-0.3,0.3-0.7,0.3-1.1v-0.1c0-1-0.7-1.8-1.6-2v-0.8c0-0.3-0.2-0.5-0.5-0.5s-0.5,0.2-0.5,0.5v0.8
						c-0.9,0.2-1.6,1-1.6,2v0.1c0,0.4,0.1,0.8,0.3,1.1c-0.2,0.2-0.3,0.6-0.3,0.9c0,0.3,0.1,0.6,0.3,0.8c-1.1,1.3-2.5,2.4-4,3.2
						L26.2,73c0,0,0,0,0,0c-0.6-0.1-1.2-0.2-1.7-0.4c-0.3-0.1-0.6,0-0.8,0.2c-0.2,0.2-0.2,0.6-0.1,0.9l0.4,0.8
						c0.7,1.3,2.1,2.2,3.6,2.2h1.9v2.7c-0.2,0-0.4,0.2-0.6,0.4c-0.7,1-1.6,1.8-2.8,2.3l-2.1,0.8c-0.5-0.1-0.9-0.2-1.4-0.4
						c-0.3-0.1-0.6,0-0.8,0.2c-0.2,0.2-0.2,0.6-0.1,0.9l0.4,0.8c0.7,1.3,2,2.1,3.5,2.2v1.1c0,0.4,0.4,0.8,0.8,0.8h0.5v2h-2.3
						c-0.4,0-0.8,0.3-0.8,0.8v1h-1.6c-0.4,0-0.8,0.3-0.8,0.8v1.3c0,0.4,0.4,0.8,0.8,0.8h22.9c0.4,0,0.8-0.3,0.8-0.8v-1.3
						C45.8,92.4,45.5,92.1,45.1,92.1z M32.5,66.1c0-0.6,0.5-1.1,1.1-1.1c0.6,0,1.1,0.5,1.1,1.1v0.1c0,0.6-0.5,1.1-1.1,1.1
						C33,67.2,32.5,66.7,32.5,66.1L32.5,66.1z M32.6,67.9c0.3,0.2,0.7,0.3,1,0.3s0.7-0.1,1-0.3c0,0.1,0.1,0.1,0.1,0.2
						c0,0.2-0.2,0.5-0.4,0.5h-1.3c-0.2,0-0.4-0.2-0.4-0.5C32.5,68,32.5,68,32.6,67.9z M28.3,73c1.7-0.8,3.2-2,4.4-3.5
						c0.1,0,0.2,0,0.3,0h1.3c0.1,0,0.2,0,0.3,0c1.2,1.5,2.7,2.7,4.4,3.5l0.4,0.2c-0.2,0-0.4,0-0.6,0H28.5c-0.2,0-0.4,0-0.6,0
						L28.3,73z M27.5,75.6c-1.2,0-2.2-0.6-2.8-1.7l-0.2-0.4c1.3,0.4,2.6,0.6,3.9,0.6h10.3c1.3,0,2.7-0.2,3.9-0.6L42.5,74
						c-0.5,1-1.6,1.7-2.8,1.7H27.5z M36.9,76.6v2.7h-6.6v-2.7H36.9z M26.4,82.8c1.3-0.5,2.4-1.4,3.1-2.6h8.2c0.8,1.2,1.9,2,3.1,2.6
						l0.5,0.2c-0.3,0-0.5,0-0.8,0h-14c-0.3,0-0.5,0-0.8,0L26.4,82.8z M25.6,85.4c-1.1,0-2.2-0.6-2.7-1.7l-0.2-0.4
						c1.3,0.4,2.6,0.6,3.9,0.6h14c1.3,0,2.7-0.2,3.9-0.6l-0.2,0.4c-0.5,1-1.6,1.7-2.8,1.7H25.6z M26.5,87.3v-0.9h14.2v0.9H26.5z
						 M39.4,88.3v2H27.8v-2H39.4z M44.9,94H22.3v-1h7.6c0.3,0,0.5-0.2,0.5-0.5c0-0.3-0.2-0.5-0.5-0.5h-5.2v-0.9h17.8v0.9h-3.7
						c-0.3,0-0.5,0.2-0.5,0.5c0,0.3,0.2,0.5,0.5,0.5h6.1V94z"/>
				</g>
			</g>
		</g>
	</g>
</g>
</svg>
